<?xml version="1.0" encoding="UTF-8"?>
<svg width="48" height="48" viewBox="0 0 48 48" fill="none" xmlns="http://www.w3.org/2000/svg">
    <rect width="48" height="48" rx="24" fill="#009933"/>
    <circle cx="21.001" cy="18" r="4" fill="white"/>
    <ellipse cx="21.001" cy="29.001" rx="7" ry="4" fill="white"/>
    <path d="M32.9996 29.0007C32.9996 30.6576 30.9641 32.0007 28.4788 32.0007C29.211 31.2003 29.7145 30.1958 29.7145 29.0021C29.7145 27.807 29.2098 26.8015 28.4762 26.0007C30.9615 26.0007 32.9996 27.3438 32.9996 29.0007Z" fill="white"/>
    <path d="M29.9996 18.001C29.9996 19.6578 28.6565 21.001 26.9996 21.001C26.6383 21.001 26.292 20.9371 25.9712 20.8201C26.4443 19.988 26.7145 19.0255 26.7145 17.9999C26.7145 16.975 26.4447 16.0132 25.9722 15.1815C26.2927 15.0647 26.6387 15.001 26.9996 15.001C28.6565 15.001 29.9996 16.3441 29.9996 18.001Z" fill="white"/>
</svg>
