<?xml version="1.0" encoding="UTF-8"?>
<svg width="52" height="52" viewBox="0 0 52 52" fill="none" xmlns="http://www.w3.org/2000/svg">
    <rect width="52" height="52" rx="26" fill="#009933"/>
    <path d="M23.3749 25.9998C23.3749 24.5501 24.5502 23.3748 25.9999 23.3748C27.4497 23.3748 28.6249 24.5501 28.6249 25.9998C28.6249 27.4496 27.4497 28.6248 25.9999 28.6248C24.5502 28.6248 23.3749 27.4496 23.3749 25.9998Z" fill="white"/>
    <path fill-rule="evenodd" clip-rule="evenodd" d="M14.3333 25.9998C14.3333 27.9124 14.829 28.5566 15.8206 29.8448C17.8005 32.417 21.1211 35.3332 25.9999 35.3332C30.8788 35.3332 34.1993 32.417 36.1792 29.8448C37.1708 28.5566 37.6666 27.9124 37.6666 25.9998C37.6666 24.0872 37.1708 23.4431 36.1792 22.1549C34.1993 19.5827 30.8788 16.6665 25.9999 16.6665C21.1211 16.6665 17.8005 19.5827 15.8206 22.1549C14.829 23.4431 14.3333 24.0872 14.3333 25.9998ZM25.9999 21.6248C23.5837 21.6248 21.6249 23.5836 21.6249 25.9998C21.6249 28.4161 23.5837 30.3748 25.9999 30.3748C28.4162 30.3748 30.3749 28.4161 30.3749 25.9998C30.3749 23.5836 28.4162 21.6248 25.9999 21.6248Z" fill="white"/>
</svg>

