<?xml version="1.0" encoding="UTF-8"?>
<svg width="20" height="20" viewBox="0 0 20 20" fill="none" xmlns="http://www.w3.org/2000/svg">
    <path fill-rule="evenodd" clip-rule="evenodd" d="M7.99375 2.66673C7.79081 2.83967 7.68934 2.92615 7.58097 2.99879C7.33255 3.16529 7.05356 3.28085 6.76016 3.33877C6.63217 3.36404 6.49928 3.37465 6.23348 3.39586C5.56566 3.44915 5.23175 3.4758 4.95317 3.57419C4.30884 3.80178 3.80202 4.30859 3.57444 4.95293C3.47604 5.23151 3.44939 5.56542 3.3961 6.23324C3.37489 6.49903 3.36429 6.63193 3.33902 6.75992C3.28109 7.05331 3.16553 7.3323 2.99903 7.58072C2.92639 7.68909 2.83992 7.79056 2.66697 7.99351C2.23244 8.5034 2.01517 8.75836 1.88776 9.02493C1.59308 9.64146 1.59308 10.3582 1.88776 10.9747C2.01517 11.2413 2.23244 11.4963 2.66697 12.0062C2.8399 12.2091 2.9264 12.3106 2.99903 12.419C3.16553 12.6674 3.28109 12.9464 3.33902 13.2398C3.36429 13.3677 3.37489 13.5006 3.3961 13.7664C3.44939 14.4343 3.47604 14.7682 3.57444 15.0467C3.80202 15.6911 4.30884 16.1979 4.95317 16.4255C5.23175 16.5239 5.56566 16.5505 6.23348 16.6038C6.49928 16.625 6.63217 16.6356 6.76016 16.6609C7.05356 16.7188 7.33255 16.8344 7.58096 17.0009C7.68934 17.0735 7.79081 17.16 7.99375 17.3329C8.50365 17.7675 8.75861 17.9847 9.02517 18.1122C9.64171 18.4068 10.3585 18.4068 10.975 18.1122C11.2416 17.9847 11.4965 17.7675 12.0064 17.3329C12.2094 17.16 12.3108 17.0735 12.4192 17.0009C12.6676 16.8344 12.9466 16.7188 13.24 16.6609C13.368 16.6356 13.5009 16.625 13.7667 16.6038C14.4345 16.5505 14.7684 16.5239 15.047 16.4255C15.6913 16.1979 16.1981 15.6911 16.4257 15.0467C16.5241 14.7682 16.5508 14.4343 16.6041 13.7664C16.6253 13.5006 16.6359 13.3677 16.6611 13.2398C16.7191 12.9464 16.8346 12.6674 17.0011 12.419C17.0738 12.3106 17.1602 12.2091 17.3332 12.0062C17.7677 11.4963 17.985 11.2413 18.1124 10.9747C18.4071 10.3582 18.4071 9.64146 18.1124 9.02493C17.985 8.75836 17.7677 8.50341 17.3332 7.99351C17.1602 7.79056 17.0738 7.68909 17.0011 7.58072C16.8346 7.3323 16.7191 7.05331 16.6611 6.75992C16.6359 6.63193 16.6253 6.49903 16.6041 6.23324C16.5508 5.56542 16.5241 5.23151 16.4257 4.95293C16.1981 4.30859 15.6913 3.80178 15.047 3.57419C14.7684 3.4758 14.4345 3.44915 13.7667 3.39586C13.5009 3.37465 13.368 3.36404 13.24 3.33877C12.9466 3.28085 12.6676 3.16529 12.4192 2.99879C12.3108 2.92615 12.2094 2.83968 12.0064 2.66673C11.4965 2.23219 11.2416 2.01493 10.975 1.88752C10.3585 1.59283 9.64171 1.59283 9.02517 1.88752C8.75861 2.01492 8.50365 2.2322 7.99375 2.66673ZM13.1925 6.80783C13.4574 7.07269 13.4574 7.50211 13.1925 7.76697L7.76678 13.1927C7.50191 13.4576 7.07249 13.4576 6.80763 13.1927C6.54277 12.9278 6.54277 12.4984 6.80763 12.2336L12.2334 6.80783C12.4982 6.54297 12.9276 6.54297 13.1925 6.80783ZM13.1651 12.261C13.1651 12.7604 12.7602 13.1653 12.2608 13.1653C11.7614 13.1653 11.3565 12.7604 11.3565 12.261C11.3565 11.7616 11.7614 11.3567 12.2608 11.3567C12.7602 11.3567 13.1651 11.7616 13.1651 12.261ZM7.73935 8.64383C8.23877 8.64383 8.64364 8.23897 8.64364 7.73955C8.64364 7.24012 8.23877 6.83526 7.73935 6.83526C7.23992 6.83526 6.83506 7.24012 6.83506 7.73955C6.83506 8.23897 7.23992 8.64383 7.73935 8.64383Z" fill="#009933"/>
</svg>

