<?xml version="1.0" encoding="UTF-8"?>
<svg width="52" height="52" viewBox="0 0 52 52" fill="none" xmlns="http://www.w3.org/2000/svg">
    <rect width="52" height="52" rx="26" fill="#009933"/>
    <path d="M23.0832 14.333C22.1167 14.333 21.3332 15.1165 21.3332 16.083V17.2497C21.3332 18.2162 22.1167 18.9997 23.0832 18.9997H28.9165C29.883 18.9997 30.6665 18.2162 30.6665 17.2497V16.083C30.6665 15.1165 29.883 14.333 28.9165 14.333H23.0832Z" fill="white"/>
    <path fill-rule="evenodd" clip-rule="evenodd" d="M19.5832 16.7091C18.1157 16.7914 17.1892 17.0253 16.525 17.6894C15.4999 18.7146 15.4999 20.3645 15.4999 23.6643V30.6643C15.4999 33.9641 15.4999 35.6141 16.525 36.6392C17.5501 37.6643 19.2 37.6643 22.4999 37.6643H29.4999C32.7997 37.6643 34.4496 37.6643 35.4748 36.6392C36.4999 35.6141 36.4999 33.9641 36.4999 30.6643V23.6643C36.4999 20.3645 36.4999 18.7146 35.4748 17.6894C34.8106 17.0253 33.8841 16.7914 32.4165 16.7091V17.2497C32.4165 19.1827 30.8495 20.7497 28.9165 20.7497H23.0832C21.1502 20.7497 19.5832 19.1827 19.5832 17.2497V16.7091ZM30.0969 26.6394C30.4502 26.3096 30.4693 25.7559 30.1396 25.4026C29.8098 25.0494 29.2561 25.0303 28.9029 25.36L24.4999 29.4694L23.0969 28.16C22.7436 27.8303 22.1899 27.8494 21.8602 28.2026C21.5305 28.5559 21.5496 29.1096 21.9029 29.4394L23.9029 31.306C24.239 31.6198 24.7607 31.6198 25.0969 31.306L30.0969 26.6394Z" fill="white"/>
</svg>
