<svg width="226" height="226" viewBox="0 0 226 226" fill="none" xmlns="http://www.w3.org/2000/svg">
<rect width="226" height="226" rx="5.42857" fill="#E5EEFF"/>
<g clip-path="url(#clip0_338_15942)">
<path d="M176.357 121.635L172.238 119.459V123.632L176.357 121.635Z" fill="#2EB3BD"/>
<path d="M83.2634 121.997L69.9616 112.639C68.0043 107.748 64.7443 103.402 61.0517 101.269C55.0661 97.8134 50.2129 101.483 50.2129 109.463C50.2129 117.444 55.0663 126.716 61.0517 130.172C63.8886 131.81 66.4707 131.846 68.4026 130.582L83.2634 121.997ZM133.668 151.459L120.367 142.101C118.409 137.211 115.149 132.864 111.457 130.732C105.47 127.276 100.618 130.945 100.618 138.926C100.618 146.907 105.47 156.179 111.457 159.635C114.295 161.273 116.876 161.308 118.808 160.044L133.668 151.459Z" fill="#23292E"/>
<path d="M174.42 121.682L174.053 121.894C172.873 115.815 169.881 110.236 165.469 105.891L155.162 95.742L153.011 91.7356C147.603 81.6631 139.486 73.3028 129.577 67.5988L96.4575 48.5357L54.2845 72.9813L53.5341 81.0109C50.25 87.3522 48.536 94.3893 48.5361 101.531V102.985C48.5361 105.541 49.2082 108.051 50.485 110.265C51.7618 112.479 53.5983 114.317 55.8103 115.597L124.888 155.557C124.947 155.595 125.005 155.633 125.066 155.668C125.171 155.729 125.278 155.787 125.386 155.846L125.742 156.051C125.869 156.124 125.999 156.191 126.133 156.251C126.166 156.266 126.198 156.279 126.23 156.294C126.344 156.342 126.457 156.386 126.57 156.424C126.585 156.429 126.599 156.437 126.614 156.442C128.724 157.347 131.017 157.748 133.309 157.612C135.601 157.477 137.83 156.808 139.819 155.659L171.519 137.336C173.327 136.29 174.828 134.788 175.872 132.979C176.915 131.17 177.465 129.118 177.465 127.03V123.438C177.465 121.876 175.773 120.9 174.42 121.682Z" fill="#63DBFF"/>
<path d="M174.42 121.682L137.179 143.209C135.455 144.204 133.486 144.693 131.497 144.622C130.118 139.202 127.282 134.262 123.296 130.338L112.991 120.188L110.839 116.182C105.431 106.109 97.3137 97.749 87.4048 92.0453L54.2845 72.9813L53.5331 81.0109C50.2497 87.3525 48.5361 94.3894 48.5361 101.531V102.985C48.5362 105.541 49.2083 108.051 50.4851 110.265C51.7618 112.478 53.5983 114.317 55.8103 115.597L124.887 155.558C124.947 155.595 125.005 155.633 125.065 155.668C125.171 155.729 125.278 155.787 125.386 155.846L125.742 156.051C126.018 156.212 126.31 156.342 126.614 156.442C128.724 157.348 131.017 157.749 133.309 157.613C135.601 157.477 137.83 156.808 139.819 155.659L171.519 137.336C173.327 136.29 174.828 134.788 175.872 132.979C176.915 131.17 177.465 129.118 177.465 127.03V123.438C177.465 121.876 175.773 120.9 174.42 121.682Z" fill="#2EB3BD"/>
<path d="M122.296 151.441C122.296 159.422 117.443 163.091 111.457 159.635C105.471 156.179 100.618 146.907 100.618 138.926C100.618 130.945 105.471 127.277 111.457 130.732C117.443 134.188 122.296 143.46 122.296 151.441Z" fill="#2E373D"/>
<path d="M116.786 148.26C116.786 152.184 114.401 153.988 111.457 152.289C108.514 150.589 106.128 146.031 106.128 142.107C106.128 138.182 108.514 136.379 111.457 138.078C114.401 139.778 116.786 144.336 116.786 148.26Z" fill="#CECECE"/>
<path d="M114.347 146.852C114.347 148.981 113.054 149.959 111.457 149.037C109.861 148.115 108.567 145.643 108.567 143.515C108.567 141.386 109.861 140.408 111.457 141.33C113.054 142.252 114.347 144.723 114.347 146.852Z" fill="#627681"/>
<path d="M71.8905 121.979C71.8905 129.96 67.0373 133.629 61.0517 130.173C55.0661 126.717 50.2129 117.445 50.2129 109.463C50.2129 101.483 55.0663 97.8134 61.0517 101.269C67.0383 104.726 71.8905 113.997 71.8905 121.979Z" fill="#2E373D"/>
<path d="M66.3814 118.798C66.3814 122.721 63.9952 124.526 61.052 122.827C58.1091 121.127 55.7236 116.569 55.7236 112.644C55.7236 108.72 58.1091 106.916 61.052 108.616C63.9952 110.315 66.3814 114.874 66.3814 118.798Z" fill="#CECECE"/>
<path d="M63.942 117.39C63.942 119.518 62.6484 120.496 61.0519 119.575C59.4554 118.653 58.1621 116.181 58.1621 114.052C58.1621 111.924 59.4554 110.945 61.0519 111.867C62.6484 112.789 63.942 115.261 63.942 117.39Z" fill="#627681"/>
<path d="M115.227 118.896L153.128 96.9293L144.647 84.2943C142.466 81.0433 138.133 80.0497 134.754 82.0239L111.19 95.7901C107.487 97.9541 106.194 102.681 108.282 106.428L115.227 118.896Z" fill="#304E75"/>
<path d="M172.281 116.006L166.006 119.663C165.557 119.925 165.184 120.3 164.925 120.751C164.667 121.202 164.53 121.713 164.53 122.232V127.421L174.055 121.922C173.663 119.895 173.069 117.914 172.281 116.006Z" fill="white"/>
<path d="M172.21 122.987L174.054 121.922C173.664 119.895 173.069 117.913 172.28 116.006L170.443 117.076C171.219 118.986 171.81 120.965 172.21 122.987Z" fill="#EF9910"/>
<path d="M134.086 144.998L141.04 140.983V137.519C141.04 135.971 139.364 135.004 138.024 135.777L132.047 139.229C131.447 139.575 130.768 139.756 130.076 139.756C129.384 139.756 128.704 139.575 128.104 139.229L124.059 136.893C124.059 138.379 124.45 139.838 125.194 141.124C125.937 142.411 127.007 143.478 128.294 144.22L129.651 145.001C130.325 145.389 131.09 145.593 131.869 145.593C132.647 145.592 133.412 145.387 134.086 144.998Z" fill="white"/>
<path d="M129.786 139.719C129.204 139.676 128.627 139.53 128.104 139.229L124.059 136.893C124.059 138.379 124.45 139.838 125.194 141.124C125.937 142.411 127.007 143.478 128.294 144.22L129.651 145.001C130.281 145.362 130.99 145.562 131.716 145.583C131.272 143.568 130.626 141.604 129.786 139.719Z" fill="#EF9910"/>
<path d="M115.228 118.896L138.023 135.778L166.006 119.663L153.129 96.9292L115.228 118.896Z" fill="#2EB3BD"/>
<path d="M81.8086 104.3L109.482 119.922L101.473 108.527C99.087 105.135 95.9907 102.304 92.3994 100.23L81.8086 94.116V104.3Z" fill="#243B58"/>
<path d="M149.97 96.3586L141.959 84.9661C140.96 83.5446 139.83 82.2286 138.597 81.0187C137.248 80.9962 135.919 81.3439 134.754 82.0239L129.752 84.9464L149.97 96.3586Z" fill="#59718B"/>
<path d="M78.0982 91.9736L66.329 85.1786C63.1163 83.3233 59.0047 84.7065 57.5659 88.1256L56.7188 90.1361L78.0982 102.206V91.9736Z" fill="#243B58"/>
</g>
<defs>
<clipPath id="clip0_338_15942">
<rect width="128.929" height="128.929" fill="white" transform="translate(48.5361 48.5357)"/>
</clipPath>
</defs>
</svg>
