<svg width="250" height="250" viewBox="0 0 250 250" fill="none" xmlns="http://www.w3.org/2000/svg">
<g clip-path="url(#clip0_638_24315)">
<path d="M41.4667 81.6168C42.4497 74.1871 45.4819 65.5899 48.9858 59.061C56.2866 45.4526 67.6172 36.0365 83.0128 33.1039L95.4963 33.0116C131.621 -7.88845 192.553 21.7396 208.849 69.7061C210.808 75.4688 200.831 120.142 199.249 133.068C198.283 140.943 197.87 148.831 197.87 156.765C197.87 213.686 144.374 252.782 96.5055 229.578C69.0162 216.253 53.2764 186.762 53.2764 156.764C53.2764 123.1 37.5043 103.125 41.4667 81.6182V81.6168ZM188.375 135.409L160.215 116.637C140.045 104.537 140.057 80.1417 140.6 72.5098C131.451 71.5826 115.37 98.3659 111.523 105.607C110.546 107.446 107.991 107.66 106.718 106.024L91.8737 86.943L61.7534 134.193C63.1143 141.658 63.8116 149.148 63.8116 156.764C63.8116 205.383 108.422 239.533 149.294 220.457C173.587 209.12 187.329 182.986 187.329 156.764C187.329 149.618 187.647 142.508 188.374 135.41L188.375 135.409Z" fill="#004ADD"/>
<path d="M100.725 149.895H88.7655C81.8309 149.895 81.8309 139.358 88.7655 139.358H100.725C107.658 139.358 107.659 149.895 100.725 149.895ZM161.182 149.895H149.223C142.287 149.895 142.288 139.358 149.223 139.358H161.182C168.116 139.358 168.116 149.895 161.182 149.895ZM125.059 195.245C118.599 195.245 100.562 190.474 105.749 182.346C107.309 179.903 110.584 179.182 113.026 180.743C121.145 185.933 128.788 186.062 136.881 180.773C142.676 176.985 148.455 185.8 142.641 189.595C137.338 193.057 131.444 195.245 125.059 195.245ZM196.641 158.223C194.504 158.223 191.826 157.801 192.146 154.934C194.207 136.438 192.762 155.75 194.412 126.061C194.758 119.042 214.104 125.577 214.104 140.757C214.104 150.39 206.27 158.221 196.641 158.221V158.223ZM53.3015 158.223C43.673 158.223 35.8405 150.389 35.8405 140.759C35.8405 125.948 54.5993 119.111 55.0974 126.003C57.4118 157.779 53.9519 129.191 58.9602 154.515C59.6325 157.92 55.6467 158.223 53.3015 158.223ZM240.691 55.6145C237.783 55.6145 235.423 53.2546 235.423 50.3469V13.6788C235.423 11.9473 234.014 10.5367 232.283 10.5367H196.936C190.001 10.5367 190.003 0 196.936 0H232.283C239.827 0 245.963 6.13479 245.963 13.6788V50.3469C245.963 53.2561 243.602 55.6145 240.692 55.6145H240.691ZM9.25344 55.6145C6.34571 55.6145 3.98584 53.2546 3.98584 50.3469V13.6788C3.98584 6.13479 10.1206 0 17.6646 0H53.0129C59.9475 0 59.9475 10.5367 53.0129 10.5367H17.6646C15.9332 10.5367 14.5225 11.9473 14.5225 13.6788V50.3469C14.5225 53.2561 12.1641 55.6145 9.2549 55.6145H9.25344ZM232.28 250H196.931C189.995 250 189.998 239.463 196.931 239.463H232.28C234.011 239.463 235.42 238.053 235.42 236.323V199.653C235.42 192.719 245.957 192.719 245.957 199.653V236.323C245.957 243.865 239.822 250 232.28 250ZM53.01 250H17.6631C10.1192 250 3.98438 243.865 3.98438 236.321V199.65C3.98438 192.716 14.521 192.717 14.521 199.65V236.321C14.521 238.053 15.9332 239.462 17.6631 239.462H53.01C59.9446 239.462 59.9446 250 53.01 250ZM240.748 112.396H9.25344C2.31738 112.396 2.31738 101.86 9.25344 101.86H240.748C247.683 101.86 247.683 112.396 240.748 112.396Z" fill="#004ADD"/>
</g>
<defs>
<clipPath id="clip0_638_24315">
<rect width="250" height="250" fill="white"/>
</clipPath>
</defs>
</svg>
