<svg width="134" height="134" viewBox="0 0 134 134" fill="none" xmlns="http://www.w3.org/2000/svg">
<path fill-rule="evenodd" clip-rule="evenodd" d="M50.9481 8.33482C49.3245 9.71837 48.5127 10.4102 47.6458 10.9913C45.6584 12.3233 43.4265 13.2478 41.0794 13.7112C40.0554 13.9133 38.9923 13.9982 36.8659 14.1678C31.5233 14.5942 28.852 14.8073 26.6234 15.5945C21.4688 17.4152 17.4142 21.4697 15.5936 26.6244C14.8064 28.853 14.5932 31.5243 14.1669 36.8669C13.9972 38.9932 13.9123 40.0564 13.7102 41.0803C13.2468 43.4275 12.3223 45.6594 10.9903 47.6467C10.4092 48.5137 9.71742 49.3255 8.33384 50.949C4.85759 55.0282 3.11939 57.0679 2.10014 59.2004C-0.257337 64.1327 -0.257337 69.8667 2.10014 74.799C3.1194 76.9315 4.85755 78.9711 8.33384 83.0503C9.71726 84.6737 10.4092 85.4857 10.9903 86.3526C12.3223 88.34 13.2468 90.5718 13.7102 92.919C13.9123 93.9429 13.9972 95.0061 14.1669 97.1325C14.5932 102.475 14.8064 105.146 15.5936 107.375C17.4142 112.53 21.4688 116.584 26.6234 118.405C28.852 119.192 31.5233 119.405 36.8659 119.831C38.9923 120.001 40.0554 120.086 41.0794 120.288C43.4265 120.752 45.6584 121.676 47.6458 123.008C48.5127 123.589 49.3245 124.281 50.9481 125.665C55.0273 129.141 57.0669 130.879 59.1994 131.898C64.1317 134.256 69.8657 134.256 74.798 131.898C76.9305 130.879 78.9701 129.141 83.0493 125.665C84.6729 124.281 85.4846 123.589 86.3516 123.008C88.339 121.676 90.5709 120.752 92.918 120.288C93.942 120.086 95.0051 120.001 97.1315 119.831C102.474 119.405 105.145 119.192 107.374 118.405C112.529 116.584 116.583 112.53 118.404 107.375C119.191 105.146 119.404 102.475 119.831 97.1325C120 95.0061 120.085 93.9429 120.287 92.919C120.751 90.5718 121.675 88.34 123.007 86.3526C123.588 85.4856 124.28 84.6739 125.664 83.0503C129.14 78.9711 130.878 76.9315 131.897 74.799C134.255 69.8667 134.255 64.1327 131.897 59.2004C130.878 57.0679 129.14 55.0283 125.664 50.949C124.28 49.3255 123.588 48.5137 123.007 47.6467C121.675 45.6594 120.751 43.4275 120.287 41.0803C120.085 40.0564 120 38.9932 119.831 36.8669C119.404 31.5243 119.191 28.853 118.404 26.6244C116.583 21.4697 112.529 17.4152 107.374 15.5945C105.145 14.8073 102.474 14.5942 97.1315 14.1678C95.0051 13.9982 93.942 13.9133 92.918 13.7112C90.5709 13.2478 88.339 12.3233 86.3516 10.9913C85.4846 10.4102 84.6729 9.71839 83.0493 8.33482C78.9701 4.85853 76.9305 3.12038 74.798 2.10111C69.8657 -0.25636 64.1317 -0.25636 59.1994 2.10111C57.0669 3.12037 55.0272 4.85856 50.9481 8.33482ZM96.1553 52.7539C98.2741 50.635 98.2741 47.1996 96.1553 45.0808C94.0364 42.9619 90.601 42.9619 88.4821 45.0808L56.1471 77.4157L45.5151 66.7837C43.3962 64.6648 39.9608 64.6648 37.8419 66.7837C35.7231 68.9026 35.7231 72.338 37.8419 74.4568L52.3106 88.9255C54.4294 91.0443 57.8648 91.0443 59.9837 88.9255L96.1553 52.7539Z" fill="#28CD41"/>
</svg>
